<mxfile host="app.diagrams.net" agent="Mozilla/5.0 (Windows NT 10.0; Win64; x64) AppleWebKit/537.36 (KHTML, like Gecko) Chrome/137.0.0.0 Safari/537.36 Edg/137.0.0.0" version="27.1.5">
  <diagram name="Page-1" id="P1NVpJdpPts1r3fvcMmY">
    <mxGraphModel dx="1205" dy="666" grid="1" gridSize="10" guides="1" tooltips="1" connect="1" arrows="1" fold="1" page="1" pageScale="1" pageWidth="827" pageHeight="1169" math="0" shadow="0">
      <root>
        <mxCell id="0" />
        <mxCell id="1" parent="0" />
        <mxCell id="DnPXPcGv2_RGBboA1pwE-19" value="&lt;font style=&quot;font-size: 18px;&quot;&gt;KINO&amp;nbsp;&lt;/font&gt;" style="ellipse;whiteSpace=wrap;html=1;aspect=fixed;" vertex="1" parent="1">
          <mxGeometry x="320" y="240" width="150" height="150" as="geometry" />
        </mxCell>
        <mxCell id="DnPXPcGv2_RGBboA1pwE-20" value="Korisnik&lt;div&gt;(posjetitelj kina)&lt;/div&gt;" style="rounded=0;whiteSpace=wrap;html=1;" vertex="1" parent="1">
          <mxGeometry x="335" y="50" width="120" height="60" as="geometry" />
        </mxCell>
        <mxCell id="DnPXPcGv2_RGBboA1pwE-21" value="Kino radnik&lt;div&gt;(kontrolor, blagajnik)&lt;/div&gt;" style="rounded=0;whiteSpace=wrap;html=1;" vertex="1" parent="1">
          <mxGeometry x="610" y="290" width="120" height="60" as="geometry" />
        </mxCell>
        <mxCell id="DnPXPcGv2_RGBboA1pwE-22" value="Administrator&lt;div&gt;(Upravitelj sustava)&lt;/div&gt;" style="rounded=0;whiteSpace=wrap;html=1;" vertex="1" parent="1">
          <mxGeometry x="60" y="290" width="120" height="60" as="geometry" />
        </mxCell>
        <mxCell id="DnPXPcGv2_RGBboA1pwE-23" value="Sustav za plaÄ‡anje&lt;div&gt;&lt;br&gt;&lt;/div&gt;" style="rounded=0;whiteSpace=wrap;html=1;" vertex="1" parent="1">
          <mxGeometry x="335" y="510" width="120" height="60" as="geometry" />
        </mxCell>
        <mxCell id="DnPXPcGv2_RGBboA1pwE-25" value="" style="endArrow=classic;html=1;rounded=0;entryX=0.291;entryY=0.058;entryDx=0;entryDy=0;entryPerimeter=0;" edge="1" parent="1">
          <mxGeometry width="50" height="50" relative="1" as="geometry">
            <mxPoint x="360.35" y="110" as="sourcePoint" />
            <mxPoint x="360.0000000000001" y="248.70000000000005" as="targetPoint" />
          </mxGeometry>
        </mxCell>
        <mxCell id="DnPXPcGv2_RGBboA1pwE-26" value="Registracija, pretraga, kupovina karata, ocjene" style="text;html=1;align=center;verticalAlign=middle;whiteSpace=wrap;rounded=0;" vertex="1" parent="1">
          <mxGeometry x="290" y="160" width="60" height="30" as="geometry" />
        </mxCell>
        <mxCell id="DnPXPcGv2_RGBboA1pwE-29" value="" style="endArrow=classic;html=1;rounded=0;" edge="1" parent="1">
          <mxGeometry width="50" height="50" relative="1" as="geometry">
            <mxPoint x="430" y="250" as="sourcePoint" />
            <mxPoint x="430" y="110" as="targetPoint" />
          </mxGeometry>
        </mxCell>
        <mxCell id="DnPXPcGv2_RGBboA1pwE-30" value="Prikaz filmova, dostupna mjesta, rezervacija,&lt;div&gt;informacije&lt;/div&gt;" style="text;html=1;align=center;verticalAlign=middle;whiteSpace=wrap;rounded=0;" vertex="1" parent="1">
          <mxGeometry x="440" y="170" width="60" height="20" as="geometry" />
        </mxCell>
        <mxCell id="DnPXPcGv2_RGBboA1pwE-32" value="" style="endArrow=classic;html=1;rounded=0;exitX=1;exitY=0.5;exitDx=0;exitDy=0;" edge="1" parent="1" source="DnPXPcGv2_RGBboA1pwE-22">
          <mxGeometry width="50" height="50" relative="1" as="geometry">
            <mxPoint x="190" y="319.5" as="sourcePoint" />
            <mxPoint x="320" y="319.5" as="targetPoint" />
          </mxGeometry>
        </mxCell>
        <mxCell id="DnPXPcGv2_RGBboA1pwE-33" value="Upravljanje filmovima, korisnicima, terminima, dvoranama, podaci" style="text;html=1;align=center;verticalAlign=middle;whiteSpace=wrap;rounded=0;" vertex="1" parent="1">
          <mxGeometry x="220" y="360" width="60" height="30" as="geometry" />
        </mxCell>
        <mxCell id="DnPXPcGv2_RGBboA1pwE-37" value="" style="endArrow=classic;html=1;rounded=0;exitX=0;exitY=0.5;exitDx=0;exitDy=0;" edge="1" parent="1" source="DnPXPcGv2_RGBboA1pwE-21">
          <mxGeometry width="50" height="50" relative="1" as="geometry">
            <mxPoint x="600" y="320" as="sourcePoint" />
            <mxPoint x="470" y="319.5" as="targetPoint" />
          </mxGeometry>
        </mxCell>
        <mxCell id="DnPXPcGv2_RGBboA1pwE-38" value="Provjera i skeniranje karata" style="text;html=1;align=center;verticalAlign=middle;whiteSpace=wrap;rounded=0;" vertex="1" parent="1">
          <mxGeometry x="520" y="320" width="60" height="60" as="geometry" />
        </mxCell>
        <mxCell id="DnPXPcGv2_RGBboA1pwE-40" value="" style="endArrow=classic;html=1;rounded=0;" edge="1" parent="1">
          <mxGeometry width="50" height="50" relative="1" as="geometry">
            <mxPoint x="395" y="510" as="sourcePoint" />
            <mxPoint x="394.98" y="390" as="targetPoint" />
          </mxGeometry>
        </mxCell>
        <mxCell id="DnPXPcGv2_RGBboA1pwE-41" value="Potvrda transakcije i uplata karata" style="text;html=1;align=center;verticalAlign=middle;whiteSpace=wrap;rounded=0;" vertex="1" parent="1">
          <mxGeometry x="410" y="430" width="60" height="30" as="geometry" />
        </mxCell>
      </root>
    </mxGraphModel>
  </diagram>
</mxfile>
